<svg width="32" height="32" viewBox="0 0 32 32" fill="none" xmlns="http://www.w3.org/2000/svg">
<path fill-rule="evenodd" clip-rule="evenodd" d="M25.3059 24C25.3059 24.736 24.7085 25.3333 23.9725 25.3333C23.2365 25.3333 22.6392 24.736 22.6392 24C22.6392 23.264 23.2365 22.6667 23.9725 22.6667C24.7085 22.6667 25.3059 23.264 25.3059 24ZM9.30586 24C9.30586 24.736 8.70852 25.3333 7.97252 25.3333C7.23652 25.3333 6.63919 24.736 6.63919 24C6.63919 23.264 7.23652 22.6667 7.97252 22.6667C8.70852 22.6667 9.30586 23.264 9.30586 24ZM26.6392 16.64V20H22.6392V13.4414L26.6392 16.64ZM28.8059 14.9587L22.6392 10.0253V6.66667C22.6392 5.196 21.5552 4 20.2219 4H5.05519C3.72319 4 2.63919 5.196 2.63919 6.66667V20C2.63919 21.164 3.32319 22.1453 4.26719 22.5093C4.08052 22.9707 3.97252 23.472 3.97252 24C3.97252 26.2053 5.76719 28 7.97252 28C10.1779 28 11.9725 26.2053 11.9725 24C11.9725 23.5293 11.8765 23.0853 11.7259 22.6667H15.9725H20.2192C20.0685 23.0853 19.9725 23.5293 19.9725 24C19.9725 26.2053 21.7672 28 23.9725 28C26.1779 28 27.9725 26.2053 27.9725 24C27.9725 23.5293 27.8765 23.0853 27.7259 22.6667H27.9725C28.7099 22.6667 29.3059 22.0707 29.3059 21.3333V16C29.3059 15.5947 29.1219 15.212 28.8059 14.9587Z" fill="#231F20"/>
<mask id="mask0" mask-type="alpha" maskUnits="userSpaceOnUse" x="2" y="4" width="28" height="24">
<path fill-rule="evenodd" clip-rule="evenodd" d="M25.3059 24C25.3059 24.736 24.7085 25.3333 23.9725 25.3333C23.2365 25.3333 22.6392 24.736 22.6392 24C22.6392 23.264 23.2365 22.6667 23.9725 22.6667C24.7085 22.6667 25.3059 23.264 25.3059 24ZM9.30586 24C9.30586 24.736 8.70852 25.3333 7.97252 25.3333C7.23652 25.3333 6.63919 24.736 6.63919 24C6.63919 23.264 7.23652 22.6667 7.97252 22.6667C8.70852 22.6667 9.30586 23.264 9.30586 24ZM26.6392 16.64V20H22.6392V13.4414L26.6392 16.64ZM28.8059 14.9587L22.6392 10.0253V6.66667C22.6392 5.196 21.5552 4 20.2219 4H5.05519C3.72319 4 2.63919 5.196 2.63919 6.66667V20C2.63919 21.164 3.32319 22.1453 4.26719 22.5093C4.08052 22.9707 3.97252 23.472 3.97252 24C3.97252 26.2053 5.76719 28 7.97252 28C10.1779 28 11.9725 26.2053 11.9725 24C11.9725 23.5293 11.8765 23.0853 11.7259 22.6667H15.9725H20.2192C20.0685 23.0853 19.9725 23.5293 19.9725 24C19.9725 26.2053 21.7672 28 23.9725 28C26.1779 28 27.9725 26.2053 27.9725 24C27.9725 23.5293 27.8765 23.0853 27.7259 22.6667H27.9725C28.7099 22.6667 29.3059 22.0707 29.3059 21.3333V16C29.3059 15.5947 29.1219 15.212 28.8059 14.9587Z" fill="white"/>
</mask>
<g mask="url(#mask0)">
<rect width="32" height="32" fill="#2E8856"/>
</g>
</svg>
