<svg width="32" height="32" viewBox="0 0 32 32" fill="none" xmlns="http://www.w3.org/2000/svg">
<path d="M7.10668 4.36116C7.93874 4.06433 8.83797 4.00977 9.69982 4.20383C10.5617 4.39789 11.3507 4.8326 11.9753 5.45742C12.5998 6.08223 13.0342 6.87149 13.2278 7.73342C13.4215 8.59536 13.3666 9.49456 13.0693 10.3265L27.5293 24.7865L24.7 27.6145L10.24 13.1558C9.40795 13.4527 8.50872 13.5072 7.64687 13.3132C6.78502 13.1191 5.99596 12.6844 5.37142 12.0596C4.74689 11.4348 4.31253 10.6455 4.11885 9.78357C3.92518 8.92163 3.98014 8.02243 4.27735 7.1905L7.25868 10.1732C7.44317 10.3642 7.66386 10.5165 7.90787 10.6214C8.15188 10.7262 8.41432 10.7814 8.67988 10.7837C8.94543 10.786 9.20879 10.7354 9.45459 10.6348C9.70038 10.5342 9.92368 10.3857 10.1115 10.198C10.2993 10.0102 10.4478 9.78686 10.5483 9.54107C10.6489 9.29528 10.6995 9.03192 10.6972 8.76636C10.6949 8.5008 10.6397 8.23836 10.5349 7.99435C10.4301 7.75035 10.2777 7.52966 10.0867 7.34516L7.10534 4.35983L7.10668 4.36116ZM20.9293 6.87316L25.172 4.51583L27.0573 6.40116L24.7 10.6438L22.3427 11.1158L19.516 13.9438L17.6293 12.0585L20.4573 9.2305L20.9293 6.87316ZM11.5013 17.2438L14.3293 20.0732L7.72934 26.6732C7.36539 27.0337 6.87697 27.2408 6.36479 27.2519C5.8526 27.2629 5.35573 27.0769 4.97662 26.7323C4.59751 26.3878 4.36507 25.9109 4.32725 25.4C4.28943 24.8891 4.44911 24.3831 4.77334 23.9865L4.90268 23.8438L11.5027 17.2438H11.5013Z" fill="#2E8856"/>
</svg>
