<?xml version="1.0" encoding="UTF-8"?>
<svg width="91px" height="32px" viewBox="0 0 91 32" version="1.1" xmlns="http://www.w3.org/2000/svg" xmlns:xlink="http://www.w3.org/1999/xlink">
    <!-- Generator: Sketch 61 (89581) - https://sketch.com -->
    <title>lastik_logo</title>
    <desc>Created with Sketch.</desc>
    <g id="Page-1" stroke="none" stroke-width="1" fill="none" fill-rule="evenodd">
        <g id="01-Home-Page" transform="translate(-142.000000, -16.000000)">
            <g id="Header">
                <rect id="bg" fill="none" x="0" y="0" width="375" height="64"></rect>
                <g id="lastik_logo" transform="translate(142.000000, 16.000000)" fill-rule="nonzero">
                    <path d="M77.8076897,24.3809524 L84.1653175,21.4562957 C84.1653175,21.4562957 87.9992795,18.6018741 83.6035057,8.97788075 C79.5362034,0.0778480104 74.6019518,0.382199595 74.6019518,0.382199595 L68.1904762,3.33026791 L77.8076897,24.3809524 Z" id="Path" fill="#414042"></path>
                    <path d="M77.9850346,24.3791556 C77.9582287,24.3787598 77.9316729,24.3739059 77.9064441,24.3647906 C77.8512465,24.3437255 77.8063935,24.3018553 77.7814137,24.2480752 L68.2094472,3.25905336 C68.1841525,3.20190014 68.1841525,3.13664441 68.2094472,3.07949119 C68.2287936,3.02301485 68.2709534,2.97737112 68.3255468,2.95379767 L74.7003086,0.0197518385 C74.7258344,0.00875808229 74.7529931,0.00208408111 74.7806853,0 L74.8539173,0 C75.3790448,0 80.0980475,0.244204549 83.9632716,8.70337831 C88.36434,18.3530492 84.6134294,21.2996644 84.4508899,21.4199711 C84.438476,21.4293859 84.4253361,21.437792 84.4115947,21.4451098 L78.0850589,24.3594038 C78.0561635,24.3736834 78.0243768,24.3809524 77.9921792,24.3809524 M68.7113547,3.27521395 L78.0957757,23.8530385 L84.1918985,21.0446862 C84.440173,20.8310072 87.6391639,17.8628445 83.5488853,8.88832734 C79.8069054,0.685927484 75.3486803,0.448905421 74.8539173,0.448905421 L74.8449866,0.448905421 L68.7113547,3.27521395 Z" id="Shape" fill="#414042"></path>
                    <path d="M69.3657931,15.4617539 C66.7247206,9.65085203 66.2729347,4.16037787 68.3586498,3.19369439 C70.4443649,2.2270109 74.2765094,6.16035059 76.9193676,11.9694523 C79.5622258,17.7785539 80.012226,23.2726284 77.9265109,24.2357116 C75.8407957,25.1987947 72.0068656,21.2708555 69.3657931,15.4617539" id="Path" fill="#393839"></path>
                    <path d="M77.0207023,24.380878 C74.740153,24.380878 71.3645852,20.5859662 68.9935238,15.3575301 C66.2763869,9.36295044 65.8841679,3.86178876 68.1061506,2.83368516 C68.3500799,2.72127499 68.6154257,2.66431539 68.8834895,2.66674101 C71.1640388,2.66674101 74.5396067,6.46165284 76.910668,11.690089 C79.6295797,17.6846686 80.0200239,23.1858303 77.7980413,24.2139339 C77.5541119,24.3263441 77.2887662,24.3833037 77.0207023,24.380878 M68.8781653,3.11711088 C68.6744886,3.1152006 68.4728261,3.1580579 68.2871747,3.2427735 C66.3633495,4.13989706 66.8673775,9.59620257 69.398166,15.1691341 C71.6645173,20.1643181 74.9406994,23.9287567 77.0207023,23.9287567 C77.2242477,23.931188 77.4259044,23.8889441 77.6116929,23.8048455 C79.5355181,22.907722 79.0314901,17.4514165 76.5007016,11.8766907 C74.2343503,6.88330092 70.9581682,3.11711088 68.8781653,3.11711088" id="Shape" fill="#58595B"></path>
                    <path d="M75.6300893,20.9451652 C73.7378863,20.9451652 71.5936296,16.7182216 70.769054,14.9007619 C70.0218949,13.2812433 67.7462102,7.89364471 69.7716416,6.96512071 C69.9274683,6.8934959 70.0970334,6.85665273 70.2685474,6.85714778 C72.1283435,6.85714778 74.2726002,11.0912942 75.1079781,12.9123529 C76.0081698,14.870171 76.6040967,16.6102537 76.839947,17.9508552 C77.117206,19.5289861 76.8813558,20.5024968 76.135997,20.8443951 C75.9802258,20.9161856 75.8106236,20.9530368 75.6390912,20.9523721 M70.2595455,7.3087989 C70.1532653,7.30803363 70.0481289,7.33077085 69.9516799,7.37539876 C68.8912541,7.86125434 69.3809584,10.8105777 71.1705395,14.7136175 C72.9601206,18.6166573 74.8451221,20.9343684 75.9379549,20.4269192 C76.6040967,20.1210102 76.5482848,18.9495584 76.38445,18.0210344 C76.1576016,16.7254195 75.5706766,15.024925 74.6884887,13.1012967 C73.0483394,9.52755903 71.3523782,7.3087989 70.2595455,7.3087989" id="Shape" fill="#58595B"></path>
                    <path d="M70.0952381,2.58073111 L74.7298824,0.381032944 C74.7298824,0.381032944 78.7031926,0.283879609 82.2857143,6.83714705 C82.2857143,6.83714705 78.3707572,9.22015339 75.2338403,5.66580778 C72.3374087,2.38642444 70.0952381,2.58073111 70.0952381,2.58073111" id="Path" fill="#4D4D4F"></path>
                    <path d="M81.2265411,22.8571429 C83.0295097,22.0353461 83.1142492,16.0566847 80.3773429,10.1174982 C77.6728901,4.23572993 73.1167885,0.787054307 71.2380952,1.64653174 L72.1395795,1.23204471 C73.720783,0.514318253 78.477014,4.19446066 81.1021363,9.89141441 C83.7921654,15.7301191 83.2801223,21.9133326 82.0288621,22.5000739 L81.2265411,22.8571429 Z" id="Path" fill="#58595B"></path>
                    <g id="Group" opacity="0.72" transform="translate(59.809524, 7.238095)" fill="#FFFFFF">
                        <g id="Path">
                            <path d="M0.0805507745,0.0923338048 C0.0805507745,0.0923338048 14.9036833,7.31790665 29.7142857,4.59315417 L27.0006196,18.1716549 L9.02884682,18.1716549 C9.02884682,18.1716549 10.1350775,15.5736351 5.47387263,7.22376238 C1.89383821,0.809278642 0.0805507745,0.0995756719 0.0805507745,0.0995756719"></path>
                        </g>
                    </g>
                    <g id="Group" opacity="0.64" transform="translate(67.428571, 11.428571)" fill="#FFFFFF">
                        <g id="Path">
                            <path d="M20.7446479,1.98726531 C20.7446479,1.98726531 15.2092796,5.21610884 0.0232804233,0 C0.0232804233,0 8.12307692,6.21529252 15.0660155,6.33371429 C22.008954,6.45213605 20.7392755,1.98726531 20.7392755,1.98726531"></path>
                        </g>
                    </g>
                    <path d="M84.5612344,19.0629223 C85.1409734,15.8003777 85.7703537,13.1515792 85.7703537,13.1515792 L86.8571429,12.952381 C86.2473166,14.9836881 85.7384464,17.0446552 85.3324469,19.1275271 C84.7828472,21.9234811 84.623286,23.6014124 84.603784,23.9872469 C84.5771905,24.7391755 83.8095238,24.182856 83.8095238,24.182856 C83.8095238,24.182856 84.0541843,21.9145082 84.5612344,19.0629223" id="Path" fill="#414042"></path>
                    <path d="M86.4761905,12.952381 C86.4761905,12.952381 85.8503401,15.4074074 85.3333333,18.5907107 C84.792517,21.9153748 84.3809524,23.9821062 84.3809524,23.9821062 L84.1904762,24 C84.1904762,24 84.420068,22.4092431 85.079932,18.4081941 C85.5714286,15.4324587 86.1462585,13.0400605 86.1462585,13.0400605 L86.4761905,12.952381 Z" id="Path" fill="#8C8E90"></path>
                    <path d="M81.0148419,20.3515761 C81.5992386,17.03316 82.3739924,12.952381 82.3739924,12.952381 L83.4285714,13.0325359 C83.4285714,13.0325359 82.2217067,18.3370143 81.9057137,20.7220702 C81.5897207,23.1071261 81.3974599,23.6343678 81.3841349,24.0012994 C81.3555813,24.7476313 80.3809524,24.1633906 80.3809524,24.1633906 C80.3809524,24.1633906 80.6607775,22.3412008 81.0129383,20.3515761" id="Path" fill="#414042"></path>
                    <path d="M83.047619,13.3333333 C83.047619,13.3333333 82.1470224,17.4047236 81.7867837,19.5158807 C81.3923224,21.7903905 81.1545649,24.1554545 81.1545649,24.1554545 L80.7619048,24.3809524 C80.7619048,24.3809524 81.0987279,21.6643247 81.5039964,19.3720592 C81.9957222,16.5737552 82.636947,13.3351089 82.636947,13.3351089 L83.047619,13.3333333 Z" id="Path" fill="#8C8E90"></path>
                    <path d="M76.9391531,18.7562043 C76.9391531,15.7883785 75.8095238,12.5714286 75.8095238,12.5714286 L77.5157536,12.8025002 C77.5157536,12.8025002 78.2410373,16.4400726 78.0687824,19.368183 C77.8258124,23.3126474 77.145859,24.1177875 77.145859,24.1177875 C76.6707982,24.7099085 76.366179,24.1177875 76.366179,24.1177875 C76.366179,24.1177875 76.946406,22.798152 76.9391531,18.7562043" id="Path" fill="#414042"></path>
                    <path d="M77.2633308,12.7654651 C77.2633308,12.7654651 78.375726,16.3133066 78.0278636,19.9163329 C77.7277844,22.9746328 77.1371828,24 77.1371828,24 L76.8715077,24 C76.8715077,24 77.2537741,23.0404984 77.6360405,19.6920338 C77.915095,17.2514464 77.2537741,13.9350245 76.5714286,12.5714286 L77.2633308,12.7654651 Z" id="Path" fill="#8C8E90"></path>
                    <path d="M71.8935348,17.3971075 C70.9219529,13.3588256 69.7142857,11.047619 69.7142857,11.047619 L71.3650669,11.5702628 C71.3650669,11.5702628 74.8355211,19.8511821 72.9758952,23.6489394 C72.6417437,24.3289188 72.0188416,23.8117004 72.0188416,23.8117004 C72.0188416,23.8117004 73.1629474,22.6777986 71.8917188,17.3971075" id="Path" fill="#414042"></path>
                    <path d="M71.0391253,11.4942565 C71.0391253,11.4942565 72.8067406,15.767335 73.3021233,18.5953425 C74.052703,22.9145781 72.6566247,24.3809524 72.6566247,24.3809524 L72.6059606,24.0986842 C72.6059606,24.0986842 73.8706874,22.6039056 72.9343392,18.6663534 C72.0918134,15.1158104 70.4761905,11.4285714 70.4761905,11.4285714 L71.0391253,11.4942565 Z" id="Path" fill="#8C8E90"></path>
                    <path d="M78.0091639,17.179317 C71.1033645,15.6977149 64.0790261,12.2909171 64,12.2589784 L64.3771698,11.4285714 C64.4454196,11.4587358 71.4140806,14.5195307 78.2516302,15.7793361 C82.9626606,16.6487793 86.4775239,16.4748906 88.6974376,15.2647677 L89.1428571,16.0632359 C86.6409642,18.2900751 83.1422653,18.2812032 78.0073679,17.179317" id="Path" fill="#414042"></path>
                    <path d="M77.6603718,21.552264 C72.4974039,20.5732016 67.6204629,18.1201064 67.4285714,18.0367048 L67.6096012,17.1428571 L67.7906309,17.1809318 C70.9282071,18.479361 74.1871498,19.4614612 77.5191686,20.1126797 C82.0575839,20.9557612 85.571371,20.7563226 87.9627737,19.5234292 L88.3809524,20.3447537 C86.4348828,21.7353849 84.1539082,22.7815312 77.6531306,21.5468248" id="Path" fill="#414042"></path>
                    <path d="M88.1128523,15.9111323 C88.1128523,15.9111323 85.9257318,17.2277584 79.6510582,16.4396114 C73.52063,15.6697509 67.047619,12.952381 67.047619,12.952381 C67.047619,12.952381 72.1629205,15.8782167 80.1162496,16.9095738 C84.2633039,17.458168 86.4053477,16.9095738 87.1986972,16.5859032 C88.1128523,16.2073732 88.7745779,15.5600321 88.1128523,15.9111323" id="Path" fill="#8C8E90"></path>
                    <path d="M87.3642586,20.3780735 C87.3642586,20.3780735 85.3764057,21.6340394 79.8664388,21.0594832 C76.5130271,20.6922581 73.2262072,19.8873666 70.0952381,18.6666667 C70.0952381,18.6666667 72.8059466,20.5935321 79.9549886,21.5131724 C84.1114084,22.050943 85.5733838,21.3747884 86.368525,21.0594832 C87.2847445,20.6951305 88.0292858,20.0417479 87.3642586,20.3780735" id="Path" fill="#8C8E90"></path>
                    <path d="M87.11818,25.9047619 L69.1931262,25.9047619 C69.0380789,25.9038049 68.8937388,25.8242262 68.8083956,25.6926492 C68.7230523,25.5610723 68.7079757,25.3948721 68.7682096,25.2496516 C68.7682096,25.2351339 69.648394,22.6219515 65.2439012,14.6934834 C62.0516705,8.94811145 60.3252236,7.88106195 60.1091945,7.76492051 L60.0663458,7.7449587 C59.8470193,7.6355784 59.7504738,7.37070076 59.846746,7.14247497 C59.945056,6.91357113 60.2008561,6.80100811 60.4323454,6.88478615 C60.4626221,6.89540851 60.4919004,6.90876992 60.5198282,6.92470977 C61.637466,7.45823452 71.4337579,11.9786772 82.8600871,11.9786772 C85.1675246,11.9850463 87.470897,11.7815928 89.742665,11.3707493 C89.8913842,11.3432582 90.0439089,11.3916827 90.1507941,11.5003248 C90.2576793,11.6089669 90.3053208,11.7639987 90.2782742,11.9151623 L87.5698771,25.5254875 C87.5272595,25.7447715 87.338087,25.902853 87.11818,25.9029472 M86.7611073,24.0882372 L89.237407,12.4015046 C87.3145701,13.4122981 85.0489432,13.8859374 82.8458042,13.8859374 C74.1260867,13.8859374 66.3294024,10.3127734 62.5051529,8.79023168 C63.3978349,9.87905769 65.0635794,11.6937677 66.7757434,14.1817352 C70.8820805,20.146687 70.2161397,22.8197549 70.1000911,24.0628312 L86.7611073,24.0882372 Z" id="Shape" fill="#414042"></path>
                    <path d="M70.9522655,27.796329 C71.7209819,26.5368339 73.1562904,25.9487225 74.1571071,26.4830538 C75.1579238,27.0173851 75.3417473,28.4694476 74.573031,29.7289427 C73.8043146,30.9884378 72.3671492,31.5748143 71.3663325,31.0404831 C70.3655158,30.5061518 70.1816923,29.0540893 70.9522655,27.796329" id="Path" fill="#414042"></path>
                    <path d="M71.9986755,31.6190054 C71.6782851,31.621188 71.3629348,31.5386887 71.0841961,31.3797233 C70.5214836,31.033284 70.1592378,30.4351626 70.11119,29.7731464 C70.040085,29.0230552 70.2079015,28.2696457 70.5903772,27.6218425 C71.1829599,26.5783957 72.1834004,25.9048041 73.1417748,25.9048041 C73.4621652,25.9026216 73.7775156,25.9851208 74.0562542,26.1440863 C75.1536295,26.7716266 75.3712756,28.4573361 74.5519021,29.901967 C73.9574904,30.9454138 72.95705,31.6190054 71.9913597,31.6190054 M73.1308011,26.3667377 C72.335204,26.3667377 71.4847381,26.9501351 70.9781165,27.8518793 C70.6448131,28.4139652 70.4975143,29.06803 70.557456,29.7197779 C70.5908821,30.2351146 70.8676576,30.7031434 71.3018422,30.9785391 C71.5117276,31.0995103 71.7494795,31.1629653 71.9913597,31.1625704 C72.7887858,31.1625704 73.6374226,30.5791953 74.1440442,29.6792914 C74.8390486,28.4554958 74.6927319,27.0531916 73.8203185,26.5507913 C73.6108337,26.4288418 73.3728152,26.3653156 73.1308011,26.3667377" id="Shape" fill="#414042"></path>
                    <path d="M81.2352459,27.7946132 C82.0076922,26.5368598 83.4411742,25.9487517 84.4420121,26.48308 C85.4428499,27.0174083 85.6285341,28.4694629 84.8579447,29.728951 C84.0873552,30.9884392 82.6520164,31.5748125 81.6530354,31.0404842 C80.6540544,30.5061559 80.4665133,29.0541013 81.2352459,27.7946132" id="Path" fill="#414042"></path>
                    <path d="M82.6652332,31.6190054 C82.3452278,31.621188 82.0302563,31.5386887 81.7518526,31.3797233 C81.1886762,31.0341518 80.825989,30.435706 80.7781889,29.7731464 C80.7063649,29.0232373 80.8733545,28.2697624 81.2549736,27.6218425 C81.848671,26.5783957 82.8497361,25.9048041 83.8124392,25.9048041 C84.1324446,25.9026216 84.447416,25.9851208 84.7258197,26.1440863 C85.2885185,26.489859 85.6505584,27.0883594 85.6976567,27.7506631 C85.7703811,28.500628 85.6033296,29.2543824 85.220872,29.901967 C84.6271746,30.9454138 83.6279363,31.6190054 82.6725402,31.6190054 M83.8087857,26.3667619 C83.0141446,26.3667619 82.1647006,26.9501351 81.6586878,27.8518793 C81.325809,28.413299 81.1786746,29.0667756 81.2385328,29.7179376 C81.2704626,30.2342145 81.5471969,30.7034216 81.9820245,30.9785391 C82.1922276,31.0997414 82.4303426,31.1632015 82.6725402,31.1625732 C83.4653546,31.1625732 84.3166252,30.5791953 84.8208113,29.6792914 C85.1542562,29.1167036 85.3019993,28.4620757 85.2427931,27.8095525 C85.2093107,27.2942572 84.9319951,26.8265862 84.4974746,26.5526316 C84.2882415,26.4306821 84.050509,26.3671559 83.8087857,26.3686021" id="Shape" fill="#414042"></path>
                    <path d="M82.2857143,27.0393641 C82.2857143,27.0393641 83.5690564,26.2414159 84.4581072,26.9806645 C85.3471581,27.7199131 84.8163814,29.2277602 84.5585756,29.5707863 C84.1244762,30.1412734 84.1055199,28.8572187 84.1131024,28.4004621 C84.1377456,26.9072899 82.2857143,27.0393641 82.2857143,27.0393641" id="Path" fill="#8C8E90"></path>
                    <path d="M72,27.0393641 C72,27.0393641 73.2814006,26.2414159 74.1723152,26.9806645 C75.0632299,27.7199131 74.5286811,29.2277602 74.2708845,29.5707863 C73.8386961,30.1412734 73.8178449,28.8572187 73.8254272,28.4004621 C73.8500695,26.9072899 72,27.0393641 72,27.0393641" id="Path" fill="#8C8E90"></path>
                    <path d="M61.3632359,9.51859819 C61.3360412,9.5203257 61.3087606,9.5203257 61.2815659,9.51859819 C61.0921322,9.49519633 60.9220844,9.39334565 60.8146266,9.23892335 C60.3157293,8.54407903 59.3942786,7.47575589 58.8989323,7.27077682 C58.6855678,7.19926404 58.4601304,7.1685964 58.2349196,7.18044706 C57.6530368,7.1972783 57.0745934,7.27413669 56.5091968,7.40974568 C56.314062,7.45799033 56.1070972,7.41776078 55.9456292,7.30020014 C55.7841611,7.18263951 55.6853326,7.00022895 55.6765179,6.80349402 L55.6197039,5.54061447 C55.6049007,5.21164023 55.8420651,4.92307144 56.1736396,4.86661548 C57.1507368,4.70123576 58.1385703,4.603714 59.1297388,4.57478086 C59.5410053,4.55617462 59.9520903,4.6151499 60.3405854,4.74849194 C61.0507594,5.03858945 63.2380952,7.26903971 63.2380952,7.83186361 C63.2368233,8.01917835 63.1534155,8.19694331 63.0090641,8.31999174 L61.8017684,9.36225822 C61.6802607,9.466048 61.5245333,9.52341652 61.3632359,9.52380952" id="Path" fill="#414042"></path>
                    <path d="M56.6472329,5.45740713 C56.6472329,5.45740713 59.0668819,5.17824109 59.8577873,5.45740713 C60.6486927,5.73657317 61.6516651,7.14636169 62.0253896,7.48659531 C62.3991141,7.82682892 61.2292694,7.53195979 59.5640225,6.36469677 C58.8304794,5.84126044 58.1647283,6.22336896 57.1061318,6.26000951 C56.1970252,6.29141569 56.2648171,5.52545385 56.6472329,5.46438628" id="Path" fill="#8C8E90"></path>
                    <path d="M69.291058,31.6190476 C69.2523416,31.6191334 69.2142479,31.6095484 69.1804092,31.5912062 C69.1679166,31.5912062 67.4707068,30.9282454 67.8704702,29.1464296 C68.2274018,27.5803805 69.6836828,26.7503745 69.7282992,26.7103532 C69.7946093,26.6627961 69.8819041,26.6533434 69.9573005,26.6855558 C70.032697,26.7177682 70.0847405,26.786752 70.0938269,26.8665215 C70.1029132,26.946291 70.067662,27.0247275 70.0013519,27.0722846 C69.4204642,27.7006254 69.0256642,28.4710926 68.8591708,29.3012944 C68.5415016,30.75598 69.3945682,31.1840334 69.3945682,31.1892536 C69.5056936,31.2489423 69.5470347,31.3845938 69.4873704,31.4937631 C69.4477645,31.5665326 69.3701965,31.6120441 69.285704,31.6120868" id="Path" fill="#636466"></path>
                    <path d="M67.7275318,31.6190476 C67.6869545,31.6192873 67.6470082,31.6096797 67.6116249,31.591166 C67.5985387,31.591166 65.9291059,31.2287644 66.3553441,29.4463756 C66.7292372,27.8782916 68.1388142,26.7440441 68.1855509,26.7109401 C68.2929285,26.6368466 68.4444234,26.6579082 68.5239241,26.7579827 C68.6034249,26.8580571 68.5808262,26.9992482 68.4734486,27.0733418 C68.4622318,27.0733418 67.3779417,28.1344119 67.093783,29.3610021 C66.7572792,30.8193202 67.8303524,31.1904334 67.8415692,31.1956604 C67.9396746,31.2440798 67.9896404,31.3486614 67.9626117,31.4490101 C67.9355829,31.5493587 67.838543,31.6195476 67.7275318,31.6190476" id="Path" fill="#8A8C8E"></path>
                    <path d="M79.972683,31.6190476 C79.9353025,31.6193073 79.8985195,31.6097007 79.8660819,31.5912015 C79.8521015,31.5912015 78.1429899,30.9282432 78.5344429,29.1464339 C78.8839544,27.5803905 80.3588933,26.7503875 80.4025822,26.7103664 C80.5029578,26.6368498 80.6441825,26.6582736 80.7180164,26.7582178 C80.7918503,26.858162 80.7703341,26.9987798 80.6699586,27.0722964 C80.0992821,27.7020779 79.7125099,28.4753068 79.5515215,29.3082583 C79.2387087,30.7629386 80.0757889,31.1909904 80.0757889,31.1962106 C80.1287273,31.2242609 80.1682598,31.2721567 80.1856418,31.3293032 C80.2030237,31.3864496 80.1968223,31.4481368 80.1684095,31.500719 C80.1284723,31.5732205 80.0522337,31.6185007 79.9691879,31.6190476" id="Path" fill="#636466"></path>
                    <path d="M88.5334332,11.9521122 C88.5334332,11.9521122 85.2182476,13.0255216 80.0710327,12.5638805 C71.5925303,11.811368 65.1428571,9.14285714 65.1428571,9.14285714 C65.1428571,9.14285714 71.5925303,12.5000764 80.2785672,13.2375763 C85.0608075,13.6447963 87.7247641,12.6408207 88.5262769,12.3274302 C89.3564151,12.0027801 89.3403133,11.7119087 88.5262769,11.9521122" id="Path" fill="#8C8E90"></path>
                    <path d="M86.2437587,24.7619048 L69.9395657,24.7619048 C69.815147,24.7619048 69.7142857,24.6766257 69.7142857,24.5714286 C69.7142857,24.4662315 69.815147,24.3809524 69.9395657,24.3809524 L86.2509105,24.3809524 C86.3753292,24.3809524 86.4761905,24.4662315 86.4761905,24.5714286 C86.4761905,24.6766257 86.3753292,24.7619048 86.2509105,24.7619048" id="Path" fill="#8C8E90"></path>
                    <path d="M6.56608219,17.8490295 C5.86108468,20.9954687 5.57292375,22.3373062 5.1796475,24.504615 L4.99841421,24.6582742 C2.8018667,24.6582742 2.17298718,24.6850752 0.10511531,24.7619048 L0,24.6064589 C0.10511531,24.1168937 0.706809841,21.7173094 0.837297812,21.1759289 C1.07290109,20.2218128 1.28313171,19.2676966 1.51692266,18.2867795 L2.43215079,14.2630537 C2.82542703,12.4566652 3.24407594,10.5734472 3.68990984,8.20066401 C3.84510856,7.47684419 3.95826145,6.74487869 4.02881609,6.00834096 L4.21004939,5.8546818 C6.41022156,5.51877574 6.88686512,5.4437329 9.39332155,4.95238095 L9.52380952,5.10604011 C9.07797562,6.57652248 8.89493,7.45380905 8.39835078,9.64613211 C8.08300485,10.9826094 7.79303158,12.3280204 7.48312265,13.6627109 L6.56608219,17.8490295 Z" id="Path" fill="#2E343B"></path>
                    <path d="M19.7849784,16.1103984 C18.5924318,21.300826 18.4361795,22.1314383 18.0482427,24.8048591 L17.8919903,24.9612731 C15.7367857,24.9343052 15.0668762,24.9612731 13.3822246,25.0385811 L13.2511163,24.8821672 L13.6659932,23.4816327 C12.7679912,24.545967 11.6903889,25.1428571 10.348774,25.1428571 C9.28553967,25.1428571 8.50786999,24.727551 7.98882486,24.076725 C7.36740752,23.2730807 7.23809524,22.1404276 7.23809524,21.2414966 C7.23809524,19.6234208 7.70505625,16.5958212 9.23525157,14.2855685 C11.3078401,11.1734694 14.037766,11.099757 16.0007982,11.047619 L20.8500087,11.047619 L20.952381,11.204033 L19.7849784,16.1103984 Z M13.4325127,21.6837707 C13.7917134,21.5039845 13.8743296,21.2163265 13.9515578,20.9304665 C14.1580982,19.9955782 15.1961885,15.3768707 15.456609,14.3377065 C14.8585397,14.3107386 14.2892065,14.2855685 13.6606052,15.4541788 C12.9871037,16.7000972 12.3387463,19.477794 12.3387463,20.7237123 C12.3387463,21.0599125 12.3387463,21.7862488 13.0571478,21.7862488 C13.1828945,21.7786041 13.305469,21.7436342 13.4163486,21.6837707" id="Shape" fill="#2E343B"></path>
                    <path d="M19.4285714,23.9509382 C19.8600915,22.9923072 20.2033907,21.9971152 20.4542984,20.9774522 L20.7439797,20.9522073 C21.347475,21.5870663 22.1794826,21.9609008 23.0596083,21.992657 C24.0835133,21.992657 24.610041,21.4516953 24.610041,20.8476214 C24.610041,20.2435475 24.1636767,19.8053686 23.3747961,19.0768735 C22.1905643,17.9336412 21.3998619,17.178098 21.3998619,15.5371809 C21.3998619,14.5219762 21.7423782,12.8810591 23.221757,11.7865133 C24.5881783,10.7731117 26.3517727,10.6685258 27.3501712,10.6685258 C28.6431116,10.642041 29.9259767,10.8988146 31.1069188,11.4204625 L31.2380952,11.7811037 C30.842744,12.9279424 30.7370741,13.2921899 30.3180382,14.7239352 L30.0283569,14.7762282 C29.5291577,14.2551017 28.6072788,13.9160991 27.8420828,13.9160991 C27.4839158,13.9088297 27.1340707,14.0233999 26.8509719,14.2406761 C26.6205109,14.4580544 26.4890226,14.7586766 26.4865929,15.0737571 C26.4875033,15.2651677 26.5423997,15.4525238 26.6450978,15.6147188 C26.8546157,16.0060144 26.9347791,16.0835522 27.9058492,16.9959742 C28.9315761,17.9336412 29.8789615,18.8172119 29.8789615,20.458129 C29.8789615,21.7852883 29.1502035,23.1376925 28.0370256,23.9707735 C26.6706043,25.0382712 24.9616667,25.1428571 23.8302699,25.1428571 C21.4362998,25.1428571 20.14822,24.518948 19.5688573,24.2412543 L19.4285714,23.9509382 Z" id="Path" fill="#2E343B"></path>
                    <path d="M38.0082556,21.5247038 C37.6010546,22.9966465 37.5231552,23.3328862 37.2168692,24.6492287 L37.0398253,24.8280796 C36.3250057,25.0361989 35.5848544,25.142154 34.8409395,25.1428571 C33.6653677,25.1428571 31.2380952,24.9640063 31.2380952,22.0451598 C31.2684237,21.2508492 31.3872014,20.4625151 31.5921831,19.6950592 L32.8704404,14.4279007 C32.2826545,14.4279007 32.2047552,14.4279007 31.668312,14.4529399 L31.5408404,14.3241672 C31.9498119,12.8021462 31.9763685,12.7502795 32.3339972,11.2515091 L32.486255,11.0726582 C32.9731259,11.0994858 33.0173869,11.0994858 33.5609118,11.0994858 C33.8671978,9.70444892 33.9149997,9.48982786 34.2248266,7.92309412 L34.3770844,7.76749385 C36.5016117,7.25240331 37.062841,7.12363067 39.1838274,6.47619048 L39.3112991,6.63179074 C39.005013,7.76749385 38.9784564,7.89626649 38.7482993,8.79946345 L38.1852996,11.1245249 C39.0811419,11.0994858 39.1838274,11.0994858 39.899085,11.0726582 L40,11.2282584 C39.661763,12.2355438 39.3804007,13.2614134 39.1572708,14.3009166 L38.9802269,14.4797675 C38.4172271,14.4529399 38.1374977,14.4529399 37.4983691,14.4529399 L36.6556399,18.1676727 C36.5529544,18.6845518 36.2201118,20.2852672 36.2201118,20.6715851 C36.2201118,21.26537 36.5741997,21.6785155 37.1655265,21.6785155 C37.4116332,21.6850366 37.653425,21.612385 37.8559978,21.4710485 L38.0082556,21.5247038 Z" id="Path" fill="#2E8856"></path>
                    <path d="M44.5511334,19.9420199 C43.8418942,23.5480303 43.763696,23.9408537 43.6582194,24.8821817 L43.4763632,25.0378629 C41.2177092,25.0650166 40.5666639,25.0650166 38.2261746,25.1428571 L38.0952381,24.9853657 C38.3043727,24.28118 38.5407858,23.2873548 38.8026587,22.2953399 C39.4064213,19.9673634 39.4064213,19.9166765 39.8537876,17.9815233 L40.0902007,16.8591707 C40.4846837,15.1507032 40.791208,13.4232863 41.0085745,11.6836769 L41.1904307,11.5261855 C43.5018231,11.2130129 44.10013,11.1080186 46.546096,10.6898517 L46.6515726,10.8473432 C45.8368568,14.2705187 45.5222456,15.6046701 44.8912045,18.4268439 L44.5511334,19.9420199 Z M47.6190476,5.5161682 C47.2262382,7.05849793 47.1462215,7.37167052 46.7515935,9.12217856 L46.5515517,9.33035687 C45.0021368,9.56568887 43.4272621,9.77567743 41.8523873,10.0110094 L41.695991,9.82998481 C42.0888004,8.07766652 42.1415387,7.83871403 42.4561499,6.19682076 L42.692563,5.98864245 C44.7057112,5.7515002 45.4604145,5.64650592 47.4608327,5.33333333 L47.6190476,5.5161682 Z" id="Shape" fill="#2E8856"></path>
                    <path d="M56.3689862,16.3898949 C56.7261849,18.2481556 59.4158909,28.9881511 60.0606345,31.2845965 L59.9052531,31.4634474 L57.4048624,31.5403532 L54.827674,31.6190476 L54.6972965,31.4634474 C54.6204987,30.9465683 52.5791083,21.6534764 52.5005246,21.0900961 C52.2951354,19.4124748 52.1147501,18.4305835 51.9343647,17.3199195 C51.4182127,19.5662866 50.7734691,22.4583054 50.4644922,24.5508607 L50.259103,24.7046725 C48.0676891,24.7046725 47.3443618,24.7315001 45.4887148,24.808406 L45.3333333,24.6528057 C45.6440962,23.697742 45.6691001,23.5689694 46.1334584,21.5551084 C46.3656375,20.5231388 46.6228205,19.5144199 46.8800036,18.4824503 L47.3443618,16.4167226 C47.9641015,13.6785155 48.2998683,12.1243014 48.917822,8.82450257 C49.2267988,7.17370892 49.2750207,6.75877487 49.3553904,6.0362173 L49.5339897,5.88240554 C51.9843726,5.46926 52.4987386,5.36552649 54.7937401,4.95238095 L54.9241176,5.10619271 C54.7103199,5.72294594 54.5378857,6.35330705 54.4079655,6.99306953 C54.2525841,7.58506595 54.1239926,8.17885088 53.9686112,8.78157836 L51.9861586,17.0605857 C52.5523184,16.2861614 54.9509075,13.0310753 55.9564218,11.0690812 L56.163597,10.9152694 C58.0960418,10.8884418 58.5604001,10.8884418 60.467841,10.8115359 L60.5714286,11.0172144 C59.9016811,11.7326179 59.3087313,12.4891572 58.6889916,13.2635815 L56.3689862,16.3898949 Z" id="Path" fill="#2E8856"></path>
                    <path d="M6.61921953,17.8974132 L6.40030742,18.8712498 C4.64723073,19.3644451 3.03475614,19.7787292 1.14285714,20.5714286 C1.14285714,20.5714286 1.47745452,19.093636 1.65365207,18.3368054 L2.55243758,14.297984 C2.93864838,12.4848187 3.34977601,10.5945355 3.78760024,8.21285042 C3.94001073,7.48631508 4.05113076,6.75160351 4.12041784,6.01230254 L4.29839517,5.85806691 C6.46615903,5.52090066 6.9342394,5.44557628 9.39566585,4.95238095 L9.52380952,5.10661658 C9.0859853,6.58261568 8.9062282,7.46319352 8.41857032,9.6637414 C8.10888977,11.0052327 7.82412604,12.3556912 7.51978481,13.695389 L6.61921953,17.8974132 Z" id="Path" fill="#2E343B"></path>
                    <path d="M19.7916428,16.0453451 C19.7292375,16.3168835 19.6686152,16.5777733 19.613342,16.8262398 C19.613342,16.8262398 17.6966085,16.9522478 14.7992206,17.3302719 L15.5124237,14.3025301 C15.35017,14.3025301 14.8384467,14.2173416 14.3980438,14.5527714 C13.9576408,14.8882012 13.5653791,15.6761949 13.328239,16.3594778 C13.0411747,17.1669939 12.9395433,17.6018103 12.9395433,17.6018103 C9.94230696,18.0721218 7.61904762,18.6666667 7.61904762,18.6666667 C7.89719686,17.2468581 8.42853322,15.6176278 9.33965028,14.2510621 C11.3758453,11.1718523 14.0860174,11.0990871 16.0366281,11.047619 L20.8507495,11.047619 L20.952381,11.2020232 L19.7916428,16.0453451 Z" id="Path" fill="#2E343B"></path>
                    <path d="M24.5862813,16.6243007 C23.2809664,16.6738382 21.8609955,16.7619048 21.8609955,16.7619048 C21.7592408,16.3915314 21.7099203,16.0077114 21.7145886,15.6225432 C21.7145886,14.5895955 22.0444452,12.9199998 23.4785276,11.8063243 C24.8014818,10.7752113 26.5089748,10.6687975 27.4756134,10.6687975 C28.7264502,10.6402092 29.9678964,10.8995893 31.1110916,11.4283719 L31.2380952,11.795316 C30.8553205,12.9621983 30.754776,13.3328119 30.3455421,14.7895801 L30.0650758,14.842787 C29.5817565,14.3125527 28.6909673,13.9676252 27.948349,13.9676252 C27.6021771,13.9606506 27.2641495,14.0772003 26.9905301,14.297875 C26.7674003,14.5190524 26.6400947,14.8249287 26.6377423,15.1455159 C26.6386237,15.3402718 26.6917739,15.5309024 26.791205,15.6959321 C26.9481956,16.0023304 27.0134613,16.1050748 27.4773773,16.5710938 C27.4773773,16.5710938 26.1173803,16.5710938 24.595101,16.6187966" id="Path" fill="#2E343B"></path>
                    <path d="M34.4490821,16.9927771 C33.6073671,16.9470209 32.0651398,16.8884531 32.0651398,16.8884531 L32.6152804,14.6134588 C32.0064582,14.6134588 31.9257709,14.6134588 31.370129,14.6390823 L31.2380952,14.5073046 C31.6617034,12.9497663 31.6892105,12.8966892 32.0596384,11.3629441 L32.2173454,11.1799196 C32.7216409,11.2073733 32.7674859,11.2073733 33.330463,11.2073733 C33.6477107,9.77978233 33.6972234,9.56015296 34.0181387,7.95685852 L34.1758456,7.79762722 C36.3764077,7.27051672 36.9577229,7.13873909 39.1546174,6.47619048 L39.2866511,6.63542177 C38.9694034,7.79762722 38.9418964,7.92940484 38.7035022,8.85367847 L38.1203532,11.2329967 C39.0482569,11.2073733 39.1546174,11.2073733 39.8954733,11.1799196 L40,11.3391509 C39.6496579,12.3699419 39.3582258,13.4197508 39.1271104,14.4835115 L38.9437302,14.6665359 C38.3605812,14.6390823 38.0708406,14.6390823 37.4088381,14.6390823 L36.8348582,17.1428571 C36.8348582,17.1428571 35.2907971,17.0385332 34.4509159,16.9927771" id="Path" fill="#2E8856"></path>
                    <path d="M42.570018,17.5508161 C41.2959297,17.3693054 40,17.2549537 40,17.2549537 L40.0782654,16.8919324 C40.4730877,15.1788777 40.7798756,13.4468228 40.9974291,11.7025425 L41.1794417,11.5446282 C43.4928219,11.2306148 44.0916433,11.1253386 46.5397129,10.706049 L46.6452802,10.8639633 C45.8826474,14.0730718 45.5641253,15.4253262 45.0071667,17.9047619 C45.0071667,17.9047619 43.8095238,17.7232512 42.5663777,17.5562614 M47.6190476,5.5166591 C47.2259004,7.06312996 47.1458148,7.37714341 46.7508475,9.13235153 L46.5506336,9.34108879 C44.9998862,9.57705265 43.4236571,9.78760502 41.8474279,10.0235689 L41.6908971,9.84205822 C42.0840443,8.085035 42.136828,7.84544092 42.4517098,6.1991392 L42.6883262,5.99040194 C44.7032057,5.75262297 45.458558,5.64734678 47.4606967,5.33333333 L47.6190476,5.5166591 Z" id="Shape" fill="#2E8856"></path>
                    <path d="M56.3226183,16.4579989 C56.4508229,17.1141787 56.864328,18.8454147 57.3789523,20.952381 C57.3789523,20.952381 56.3460924,20.5173248 55.0315433,20.0822686 C53.3811342,19.5429428 52.1424245,19.206763 52.1424245,19.206763 C52.0394997,18.5451899 51.9437976,18.0004708 51.8444842,17.3928304 C51.7235023,17.9177742 51.6007148,18.4553023 51.4707044,19.0305832 C51.4707044,19.0305832 50.4143704,18.769909 49.2352488,18.4912574 C47.864723,18.2072124 46.8571429,18.0166506 46.8571429,18.0166506 L47.2038371,16.4759765 C47.8304147,13.7236169 48.1698862,12.1613697 48.7946581,8.84451578 C49.1070441,7.18518994 49.155798,6.76811129 49.2370545,6.04181915 L49.4176244,5.88721241 C51.8950437,5.47193151 52.4150851,5.36766185 54.7354086,4.95238095 L54.8672247,5.10698769 C54.651068,5.72692864 54.4767312,6.3605478 54.3453776,7.00361691 C54.1882818,7.59867309 54.0582714,8.19552702 53.9011756,8.80136972 L51.8914323,17.1321562 C52.463839,16.3537293 54.8888931,13.0818192 55.9055017,11.1096843 L56.1149629,10.9550776 C58.0687294,10.9281113 58.5382112,10.9281113 60.466698,10.8508079 L60.5714286,11.0575495 C59.8942914,11.7766506 59.2947992,12.5371001 58.6682216,13.315527 L56.3226183,16.4579989 Z" id="Path" fill="#2E8856"></path>
                    <path d="M32.2203528,31.0222835 C32.104306,31.3494535 32.0822018,31.4271789 31.971681,31.8302668 L31.9108946,31.8899166 C31.6979547,31.9682239 31.4713444,32.004467 31.2440857,31.9965631 C30.7988561,32.0268493 30.363946,31.8557388 30.0633552,31.5320179 C29.8252879,31.2273411 29.702252,30.8510816 29.7152146,30.4673598 C29.7152146,29.6286478 30.2051902,27.8102335 31.826162,27.8102335 C32.1468541,27.8014133 32.4643331,27.8749373 32.7471687,28.0235266 L32.7619048,28.0994445 C32.7084864,28.2368198 32.660594,28.3796177 32.6219117,28.5169929 C32.5832295,28.6543682 32.5445472,28.7610148 32.513233,28.8785067 L32.4377104,28.9020051 C32.2979708,28.7630348 32.1079933,28.683788 31.9090526,28.6814817 C31.1169868,28.6814817 30.860947,29.8455561 30.860947,30.3480603 C30.8528688,30.5438555 30.9041518,30.7376029 31.008308,30.9047915 C31.1455156,31.0778914 31.3597637,31.1749261 31.5830162,31.1650814 C31.7933983,31.1634063 31.998541,31.100498 32.1724605,30.9843245 L32.2203528,31.0222835 Z" id="Path" fill="#2E343B"></path>
                    <path d="M35.3746575,31.5742158 C35.0431802,31.8601726 34.6189553,32.0116057 34.183811,31.9993054 C33.4941865,31.9993054 32.7619048,31.6570722 32.7619048,30.489877 C32.7677981,29.9040708 32.9058045,29.3273881 33.1653707,28.8039283 C33.4656844,28.1801771 34.0982054,27.7920512 34.782789,27.8114521 C35.1943317,27.7896788 35.5943642,27.9531569 35.8758794,28.2581565 C36.1833667,28.6184019 36.1904762,29.1389566 36.1904762,29.3208805 C36.1904762,29.8900683 36.003851,31.005028 35.3746575,31.5742158 M34.6352662,30.8753396 C34.873207,30.2998618 35.0097622,29.6865689 35.0387321,29.063305 C35.0387321,28.9264118 35.0387321,28.5841786 34.7472414,28.5841786 C34.4557506,28.5841786 34.3348885,28.86517 34.2691254,29.0164731 C34.0645701,29.5768062 33.9447255,30.1652432 33.9136488,30.7618623 C33.9136488,30.8987556 33.9136488,31.2247777 34.2282456,31.2247777 C34.4539732,31.2247777 34.5659483,31.044655 34.6405984,30.8753396" id="Shape" fill="#2E343B"></path>
                    <path d="M42.3592736,30.2854653 C42.2980771,30.5465712 42.2440802,30.8076771 42.1918832,31.070609 C42.1612849,31.1929453 42.0478913,31.7863679 42.0244927,31.9233115 L41.9722956,31.9707854 C41.4179272,31.9707854 41.2829348,31.9707854 40.8275607,31.9926963 L40.7897629,31.9470484 C40.8347603,31.7644569 40.8419599,31.7535014 40.9481539,31.2550265 C40.9931513,31.0395684 41.0399486,30.8241104 41.0921457,30.6086523 L41.2145387,30.0608777 C41.245137,29.9312377 41.2739353,29.8089013 41.297334,29.6774354 C41.3450281,29.4883088 41.3757517,29.2951913 41.3891288,29.1004461 C41.3891288,28.8995954 41.297334,28.7772591 41.1227439,28.7772591 C40.9425584,28.7844424 40.7777997,28.8823976 40.6835689,29.038365 C40.6601702,29.2465193 40.6385714,29.3852889 40.5323775,29.9166304 L40.3721866,30.6616039 C40.2821917,31.0852163 40.1921968,31.5088287 40.1058017,31.9306152 L40.0536047,31.978089 C39.5010361,31.978089 39.4776374,31.978089 38.9160693,32 L38.8782715,31.9543521 C38.9232689,31.7717606 39.1284573,30.8770619 39.1734547,30.6762112 L39.2886482,30.161303 C39.3782951,29.8135246 39.4385104,29.4586169 39.4686379,29.1004461 C39.4686379,29.0000207 39.4452393,28.7845627 39.2184522,28.7845627 C39.0476437,28.7920062 38.8938264,28.8916215 38.8152751,29.0456686 L38.5632894,30.1923436 C38.3365023,31.2385932 38.2681062,31.5928208 38.2033099,31.9233115 L38.1511128,31.9707854 C37.6651404,31.9707854 37.5517469,31.9707854 36.9901788,31.9926963 L36.952381,31.9470484 C36.9901788,31.7918456 37.0207771,31.6768129 37.2637633,30.6323893 L37.4527525,29.816205 C37.6507413,28.8849881 37.6813395,28.7005706 37.7713344,28.0541965 L37.8181317,28.0085486 C38.2180149,27.9644496 38.6151957,27.8980071 39.0078641,27.8095238 L39.045662,27.847868 L38.9232689,28.3627762 C39.4398396,27.869779 39.8880141,27.8314348 40.0158068,27.8314348 C40.2257895,27.8128443 40.4302309,27.9061728 40.5557762,28.0779334 C40.6170014,28.1641972 40.6559824,28.2646277 40.6691697,28.3700799 C40.977141,28.0467759 41.3946873,27.8542386 41.8373033,27.8314348 C42.0638969,27.8149372 42.2861931,27.9002654 42.445264,28.0647998 C42.6043348,28.2293342 42.6841152,28.4564579 42.6634564,28.6859633 C42.6482021,28.9800196 42.6011219,29.2714828 42.5230643,29.5550991 L42.3592736,30.2854653 Z" id="Path" fill="#2E343B"></path>
                    <path d="M44.1904762,30.9096672 C44.0919009,31.4276658 44.08574,31.4439665 44.0025671,31.931175 L43.9563599,31.9782658 C43.5404954,31.9782658 43.4696445,31.9782658 43.0738031,32 L43.047619,31.9547204 C43.1323322,31.5037356 43.1523553,31.3751415 43.2293672,30.9241567 L43.2755744,30.8788771 C43.6975998,30.8788771 43.7946348,30.8788771 44.1642921,30.8571429 L44.1904762,30.9096672 Z" id="Path" fill="#2E343B"></path>
                    <path d="M47.0156849,31.1160165 C46.9211408,31.4490463 46.900513,31.5457323 46.8265968,31.8859241 L46.7767463,31.9306861 C46.604104,31.9785973 46.4259451,32.0014922 46.2472998,31.9987245 C46.0309368,32.0094749 45.816484,31.9520718 45.6319042,31.8340001 C45.4259591,31.6806817 45.3134431,31.4251672 45.3362392,31.162569 C45.3576767,30.8285114 45.4106478,30.4974648 45.4943856,30.1742225 L45.8278681,28.763322 C45.7044693,28.7603419 45.581015,28.7657247 45.458287,28.7794364 L45.4290643,28.7328838 C45.5167324,28.3944826 45.5304842,28.34793 45.6112764,27.9862525 L45.6542509,27.9414904 C45.8141163,27.9414904 45.8261492,27.9414904 45.9877335,27.9414904 C46.0736826,27.5350508 46.0960294,27.4437362 46.1751025,27.0140203 L46.226672,26.9692583 C46.7045491,26.8546674 46.8558195,26.8099053 47.3491674,26.6666667 L47.3783901,26.7042668 L47.2322766,27.30945 L47.0810062,27.9486524 C47.290722,27.9486524 47.3697952,27.9486524 47.5967009,27.9343285 L47.6190476,27.9790906 C47.5176277,28.3264442 47.4952809,28.4105969 47.4230836,28.7257219 L47.3732332,28.7722745 C47.2202437,28.7722745 47.1050719,28.7722745 46.909108,28.7722745 L46.6203189,30.0900698 C46.5534027,30.3373585 46.506822,30.5901327 46.4810814,30.8456536 C46.4723508,30.916335 46.4925004,30.9875883 46.5366213,31.0420548 C46.5807421,31.0965213 46.6447837,31.1292004 46.713144,31.1321308 C46.801176,31.134733 46.8891243,31.1244875 46.9744293,31.1016926 L47.0156849,31.1160165 Z" id="Path" fill="#2E343B"></path>
                    <path d="M49.0619671,31.2522231 C48.9665211,31.652622 48.9590351,31.7147843 48.9197338,31.9305244 L48.8654606,31.976232 C48.360158,31.976232 48.2254107,31.976232 47.6583489,32 L47.6190476,31.9616056 L47.635891,31.9067564 C47.6733209,31.7623203 47.8642129,31.0054018 47.9110002,30.8371977 L48.0682054,30.1662096 C48.247498,29.4709758 48.3874481,28.7666204 48.4874194,28.0563451 L48.5342067,28.0179506 C49.1087544,27.9411618 49.2584737,27.9173938 49.7955916,27.8095238 L49.8348929,27.8570598 C49.7319609,28.2336907 49.7001456,28.3488739 49.5747557,28.8882241 C49.9134955,28.2958531 50.1811187,27.8332918 50.7332086,27.8332918 C50.8399762,27.8266296 50.9458038,27.856353 51.0326471,27.9173938 L51.047619,27.9941827 C50.9690164,28.2026095 50.8829278,28.4037231 50.8043252,28.6103216 C50.7257226,28.8169201 50.6620919,28.9960941 50.5984612,29.1880662 L50.544188,29.2045209 C50.4381546,29.1224877 50.3049066,29.0814831 50.1698898,29.0893377 C49.5223539,29.0893377 49.3819921,29.743871 49.2229154,30.4825064 L49.0619671,31.2522231 Z" id="Path" fill="#2E343B"></path>
                </g>
            </g>
        </g>
    </g>
</svg>