<svg width="32" height="32" viewBox="0 0 32 32" fill="none" xmlns="http://www.w3.org/2000/svg">
<path fill-rule="evenodd" clip-rule="evenodd" d="M28.1107 9.26449C27.6214 8.47249 26.7734 8.00049 25.8427 8.00049H8.77602L7.95335 4.98315C7.79469 4.40315 7.26802 4.00049 6.66669 4.00049H4.00002C3.26269 4.00049 2.66669 4.59782 2.66669 5.33382C2.66669 6.06982 3.26269 6.66716 4.00002 6.66716H5.64802L9.38002 20.3512C9.53869 20.9312 10.0654 21.3338 10.6667 21.3338H22.6667C23.172 21.3338 23.6334 21.0485 23.86 20.5965L28.228 11.8592C28.644 11.0258 28.6 10.0565 28.1107 9.26449ZM10 24.0002C8.89602 24.0002 8.00002 24.8949 8.00002 26.0002C8.00002 27.1056 8.89602 28.0002 10 28.0002C11.104 28.0002 12 27.1056 12 26.0002C12 24.8949 11.104 24.0002 10 24.0002ZM21.3334 26.0002C21.3334 24.8949 22.2294 24.0002 23.3334 24.0002C24.4374 24.0002 25.3334 24.8949 25.3334 26.0002C25.3334 27.1056 24.4374 28.0002 23.3334 28.0002C22.2294 28.0002 21.3334 27.1056 21.3334 26.0002Z" fill="#231F20"/>
<mask id="mask0" mask-type="alpha" maskUnits="userSpaceOnUse" x="2" y="4" width="27" height="25">
<path fill-rule="evenodd" clip-rule="evenodd" d="M28.1107 9.26449C27.6214 8.47249 26.7734 8.00049 25.8427 8.00049H8.77602L7.95335 4.98315C7.79469 4.40315 7.26802 4.00049 6.66669 4.00049H4.00002C3.26269 4.00049 2.66669 4.59782 2.66669 5.33382C2.66669 6.06982 3.26269 6.66716 4.00002 6.66716H5.64802L9.38002 20.3512C9.53869 20.9312 10.0654 21.3338 10.6667 21.3338H22.6667C23.172 21.3338 23.6334 21.0485 23.86 20.5965L28.228 11.8592C28.644 11.0258 28.6 10.0565 28.1107 9.26449ZM10 24.0002C8.89602 24.0002 8.00002 24.8949 8.00002 26.0002C8.00002 27.1056 8.89602 28.0002 10 28.0002C11.104 28.0002 12 27.1056 12 26.0002C12 24.8949 11.104 24.0002 10 24.0002ZM21.3334 26.0002C21.3334 24.8949 22.2294 24.0002 23.3334 24.0002C24.4374 24.0002 25.3334 24.8949 25.3334 26.0002C25.3334 27.1056 24.4374 28.0002 23.3334 28.0002C22.2294 28.0002 21.3334 27.1056 21.3334 26.0002Z" fill="white"/>
</mask>
<g mask="url(#mask0)">
<rect width="32" height="32" fill="#2E8856"/>
</g>
</svg>
