<svg width="205" height="9" viewBox="0 0 205 9" fill="none" xmlns="http://www.w3.org/2000/svg">
<path d="M204.354 4.85354C204.549 4.65827 204.549 4.34169 204.354 4.14643L201.172 0.964449C200.976 0.769186 200.66 0.769186 200.464 0.964449C200.269 1.15971 200.269 1.47629 200.464 1.67156L203.293 4.49998L200.464 7.32841C200.269 7.52367 200.269 7.84025 200.464 8.03552C200.66 8.23078 200.976 8.23078 201.172 8.03552L204.354 4.85354ZM4.37114e-08 5L1.96154 5L1.96154 4L-4.37114e-08 4L4.37114e-08 5ZM5.88462 5L9.80769 5L9.80769 4L5.88462 4L5.88462 5ZM13.7308 5L17.6538 5L17.6538 4L13.7308 4L13.7308 5ZM21.5769 5L25.5 5L25.5 4L21.5769 4L21.5769 5ZM29.4231 5L33.3462 5L33.3462 4L29.4231 4L29.4231 5ZM37.2692 5L41.1923 5L41.1923 4L37.2692 4L37.2692 5ZM45.1154 5L49.0385 5L49.0385 4L45.1154 4L45.1154 5ZM52.9615 5L56.8846 5L56.8846 4L52.9615 4L52.9615 5ZM60.8077 4.99999L64.7308 4.99999L64.7308 3.99999L60.8077 3.99999L60.8077 4.99999ZM68.6538 4.99999L72.5769 4.99999L72.5769 3.99999L68.6538 3.99999L68.6538 4.99999ZM76.5 4.99999L80.4231 4.99999L80.4231 3.99999L76.5 3.99999L76.5 4.99999ZM84.3462 4.99999L88.2692 4.99999L88.2692 3.99999L84.3462 3.99999L84.3462 4.99999ZM92.1923 4.99999L96.1154 4.99999L96.1154 3.99999L92.1923 3.99999L92.1923 4.99999ZM100.038 4.99999L103.962 4.99999L103.962 3.99999L100.038 3.99999L100.038 4.99999ZM107.885 4.99999L111.808 4.99999L111.808 3.99999L107.885 3.99999L107.885 4.99999ZM115.731 4.99999L119.654 4.99999L119.654 3.99999L115.731 3.99999L115.731 4.99999ZM123.577 4.99999L127.5 4.99999L127.5 3.99999L123.577 3.99999L123.577 4.99999ZM131.423 4.99999L135.346 4.99999L135.346 3.99999L131.423 3.99999L131.423 4.99999ZM139.269 4.99999L143.192 4.99999L143.192 3.99999L139.269 3.99999L139.269 4.99999ZM147.115 4.99999L151.039 4.99999L151.039 3.99999L147.115 3.99999L147.115 4.99999ZM154.962 4.99999L158.885 4.99999L158.885 3.99999L154.962 3.99999L154.962 4.99999ZM162.808 4.99999L166.731 4.99999L166.731 3.99999L162.808 3.99999L162.808 4.99999ZM170.654 4.99999L174.577 4.99998L174.577 3.99998L170.654 3.99999L170.654 4.99999ZM178.5 4.99998L182.423 4.99998L182.423 3.99998L178.5 3.99998L178.5 4.99998ZM186.346 4.99998L190.269 4.99998L190.269 3.99998L186.346 3.99998L186.346 4.99998ZM194.192 4.99998L198.115 4.99998L198.115 3.99998L194.192 3.99998L194.192 4.99998ZM202.039 4.99998L204 4.99998L204 3.99998L202.039 3.99998L202.039 4.99998Z" fill="#2E8856"/>
</svg>
