<svg width="32" height="32" viewBox="0 0 32 32" fill="none" xmlns="http://www.w3.org/2000/svg">
<path fill-rule="evenodd" clip-rule="evenodd" d="M16 29.1349C15.548 29.1349 15.096 29.0229 14.6947 28.7962L14.2907 28.5682C7.94267 24.9975 4 18.2562 4 10.9735V10.7802C4 9.82155 4.52 8.93088 5.35733 8.45755L14.6933 3.20688C15.5 2.75355 16.5013 2.75221 17.3053 3.20555L26.64 8.45621C27.48 8.93088 28 9.82155 28 10.7802V10.9735C28 18.2562 24.0573 24.9975 17.7093 28.5682L17.3067 28.7949C16.904 29.0215 16.452 29.1349 16 29.1349Z" fill="#231F20"/>
<mask id="mask0" mask-type="alpha" maskUnits="userSpaceOnUse" x="4" y="2" width="24" height="28">
<path fill-rule="evenodd" clip-rule="evenodd" d="M16 29.1349C15.548 29.1349 15.096 29.0229 14.6947 28.7962L14.2907 28.5682C7.94267 24.9975 4 18.2562 4 10.9735V10.7802C4 9.82155 4.52 8.93088 5.35733 8.45755L14.6933 3.20688C15.5 2.75355 16.5013 2.75221 17.3053 3.20555L26.64 8.45621C27.48 8.93088 28 9.82155 28 10.7802V10.9735C28 18.2562 24.0573 24.9975 17.7093 28.5682L17.3067 28.7949C16.904 29.0215 16.452 29.1349 16 29.1349Z" fill="white"/>
</mask>
<g mask="url(#mask0)">
<rect width="32" height="32" fill="#2E8856"/>
</g>
</svg>
