<svg width="16" height="16" viewBox="0 0 16 16" fill="none" xmlns="http://www.w3.org/2000/svg">
<path fill-rule="evenodd" clip-rule="evenodd" d="M8 1.28C9.78256 1.28 11.4912 1.98813 12.7518 3.24816C14.0118 4.50878 14.72 6.2176 14.72 8C14.72 9.7824 14.0119 11.4912 12.7518 12.7518C11.4912 14.0118 9.7824 14.72 8 14.72C6.2176 14.72 4.5088 14.0119 3.24816 12.7518C1.98816 11.4912 1.28 9.7824 1.28 8C1.28 6.2176 1.98813 4.5088 3.24816 3.24816C4.50878 1.98816 6.2176 1.28 8 1.28ZM8 0C5.87808 0 3.8432 0.84312 2.3432 2.3432C0.8432 3.84328 0 5.87824 0 8C0 10.1218 0.84312 12.1568 2.3432 13.6568C3.84328 15.1568 5.87824 16 8 16C10.1218 16 12.1568 15.1569 13.6568 13.6568C15.1568 12.1567 16 10.1218 16 8C16 5.87824 15.1569 3.8432 13.6568 2.3432C12.1567 0.8432 10.1218 0 8 0Z" fill="white"/>
<path fill-rule="evenodd" clip-rule="evenodd" d="M8.07378 3.75995L8.24628 3.7762C8.67441 3.80307 9.09316 3.91182 9.48002 4.0962C9.82566 4.25495 10.1206 4.50682 10.3313 4.8237C10.4919 5.0737 10.5913 5.35745 10.6206 5.65245C10.6544 5.90809 10.6338 6.16746 10.56 6.41433C10.4688 6.70869 10.31 6.97807 10.0963 7.19996C9.85129 7.44495 9.58378 7.66495 9.29628 7.85746C9.13628 7.96809 8.99378 8.08309 8.84378 8.19809H8.84316C8.70691 8.31058 8.60503 8.45871 8.54753 8.62559C8.51565 8.71184 8.47878 8.79809 8.44503 8.88497C8.36065 9.11997 8.13815 9.27809 7.88815 9.27997C7.75002 9.29497 7.61002 9.2731 7.48315 9.21622C7.28815 9.1206 7.15253 8.93622 7.12003 8.72186C7.06878 8.42435 7.13816 8.11936 7.31191 7.87373C7.45066 7.67123 7.62003 7.49186 7.8144 7.34248C8.02378 7.17123 8.24003 7.00811 8.4544 6.83685C8.63253 6.7006 8.78128 6.53059 8.89253 6.33622C9.07003 5.99872 9.02566 5.5881 8.78066 5.29622C8.65378 5.15747 8.48565 5.06435 8.30066 5.03059C8.05502 4.97309 7.79878 4.97747 7.55502 5.04309C7.30253 5.11246 7.0919 5.28746 6.97752 5.52309C6.90252 5.66372 6.83689 5.80808 6.76627 5.95059C6.71502 6.0581 6.64502 6.15623 6.56002 6.23997C6.41126 6.3706 6.21502 6.43371 6.01752 6.41434C5.89752 6.41121 5.78002 6.37934 5.67502 6.32184C5.47814 6.21934 5.3544 6.01558 5.35502 5.79371C5.3469 5.43997 5.46002 5.09496 5.67502 4.81434C5.9244 4.47808 6.2544 4.21059 6.63502 4.03683C6.92253 3.90058 7.23003 3.81184 7.54565 3.77434L7.72502 3.75684L8.07378 3.75995Z" fill="white"/>
<path fill-rule="evenodd" clip-rule="evenodd" d="M7.75507 12.2402C7.70694 12.2308 7.65882 12.2227 7.61257 12.2096C7.17569 12.0952 6.89444 11.6702 6.9607 11.2227C7.02632 10.7752 7.41883 10.4496 7.8707 10.4664C8.32257 10.4833 8.68883 10.8377 8.72132 11.2889C8.75382 11.7396 8.44132 12.1427 7.99695 12.224L7.91883 12.2402L7.75507 12.2402Z" fill="white"/>
</svg>
